<?xml version="1.0" encoding="UTF-8" standalone="no"?>
<!DOCTYPE svg PUBLIC "-//W3C//DTD SVG 1.1//EN" "http://www.w3.org/Graphics/SVG/1.1/DTD/svg11.dtd">
<svg version="1.1" xmlns="http://www.w3.org/2000/svg" xmlns:xlink="http://www.w3.org/1999/xlink" preserveAspectRatio="xMidYMid meet" viewBox="0 0 640 640" width="640" height="640"><defs><path d="M6.4 303.42C6.4 177.47 76.54 64.32 189.38 8.13C194.43 5.63 200.58 6.59 204.54 10.56C208.51 14.53 209.6 20.67 207.1 25.73C186.5 67.58 176.06 112.58 176.06 159.42C176.06 326.72 312.19 462.85 479.49 462.85C526.85 462.85 572.29 452.16 614.53 431.17C619.58 428.67 625.73 429.63 629.7 433.6C633.73 437.63 634.75 443.71 632.19 448.77C576.32 562.56 462.91 633.28 336.19 633.28C154.37 633.28 6.4 485.31 6.4 303.42Z" id="b3dy05j3HM"></path></defs><g><g><g><use xlink:href="#b3dy05j3HM" opacity="1" fill="#0898ef" fill-opacity="1"></use><g><use xlink:href="#b3dy05j3HM" opacity="1" fill-opacity="0" stroke="#000000" stroke-width="1" stroke-opacity="0"></use></g></g></g></g></svg>